PathFileType	4	(X/Y/Z)	C:/Users/opensim2020/Desktop/walking_exp_matlab/subject03_walking14_straight_03.trc																																																																																																																																											
DataRate	CameraRate	NumFrames	NumMarkers	Units	OrigDataRate	OrigDataStartFrame	OrigNumFrames																																																																																																																																							
100	100	8	47	mm	100	1716	215																																																																																																																																							
Frame#	Time	LFHD			RFHD			LBHD			RBHD			C7			T10			CLAV			STRN			RBAK			LSHO			LUPA			LELB			LFRM			LWRA			LWRB			LFIN			RSHO			RUPA			RELB			RFRM			RWRA			RWRB			RFIN			LASI			RASI			LPSI			RPSI			LTHI			LKNE			LTIB			LANK			LHEE			LTOE			RTHI			RKNE			RTIB			RANK			RHEE			RTOE			*39			*40			*41			*42			*43			*44			*45			*46		
		X1	Y1	Z1	X2	Y2	Z2	X3	Y3	Z3	X4	Y4	Z4	X5	Y5	Z5	X6	Y6	Z6	X7	Y7	Z7	X8	Y8	Z8	X9	Y9	Z9	X10	Y10	Z10	X11	Y11	Z11	X12	Y12	Z12	X13	Y13	Z13	X14	Y14	Z14	X15	Y15	Z15	X16	Y16	Z16	X17	Y17	Z17	X18	Y18	Z18	X19	Y19	Z19	X20	Y20	Z20	X21	Y21	Z21	X22	Y22	Z22	X23	Y23	Z23	X24	Y24	Z24	X25	Y25	Z25	X26	Y26	Z26	X27	Y27	Z27	X28	Y28	Z28	X29	Y29	Z29	X30	Y30	Z30	X31	Y31	Z31	X32	Y32	Z32	X33	Y33	Z33	X34	Y34	Z34	X35	Y35	Z35	X36	Y36	Z36	X37	Y37	Z37	X38	Y38	Z38	X39	Y39	Z39	X40	Y40	Z40	X41	Y41	Z41	X42	Y42	Z42	X43	Y43	Z43	X44	Y44	Z44	X45	Y45	Z45	X46	Y46	Z46	X47	Y47	Z47
																																																																																																																																														
135	1.34	189.00858	1616.68201	1396.09167	200.70839	1615.52039	1528.96313	69.72263	1555.67126	1409.71802	85.74575	1554.47522	1539.51404	53.3285	1404.24658	1449.6283	25.69744	1090.65381	1434.93604	177.29984	1330.57263	1445.59058	225.80904	1168.0835	1429.17017	3.45239	1221.63672	1529.92065	132.77168	1378.23474	1293.66882	155.88306	1192.57349	1209.42529	198.14703	1079.62817	1197.74976	294.15402	1004.20477	1224.77905	377.81482	941.01318	1284.12585	370.63861	920.40045	1233.66016	441.01514	888.70575	1260.23914	125.14581	1343.46436	1605.88354	106.53442	1120.76038	1671.55225	110.11488	1007.44952	1685.21106	107.32967	870.20782	1689.76843	124.66434	769.86151	1657.70972	90.62275	771.05615	1700.13501	101.39555	696.36041	1691.349	187.47757	920.8429	1315.83203	200.82993	937.4007	1553.50403	28.63986	942.54388	1376.66577	36.74561	962.65076	1523.20764	147.26408	617.61456	1264.47144	171.85417	439.45395	1274.83203	7.61279	333.34808	1288.95898	-159.69604	216.74747	1340.66663	-204.73792	230.82169	1384.80811	-113.86167	72.4291	1351.83362	192.75215	644.20068	1601.95593	249.43048	475.77527	1556.49792	208.78313	284.1944	1559.22644	169.5125	74.05806	1507.40381	121.69106	43.80097	1458.1405	308.70389	36.82252	1489.23242	NaN	NaN	NaN	102.3953	1660.5387	1455.85559	NaN	NaN	NaN	NaN	NaN	NaN	NaN	NaN	NaN	NaN	NaN	NaN	NaN	NaN	NaN	NaN	NaN	NaN
136	1.35	202.27338	1618.68933	1396.23572	214.29408	1617.52661	1529.36475	82.72779	1558.15662	1410.14087	99.0147	1556.90784	1539.84119	65.9908	1406.3197	1450.19934	38.68212	1092.7406	1436.02563	189.84381	1332.67212	1445.66516	238.42979	1170.28967	1429.4707	16.44618	1223.94348	1531.12598	144.32152	1380.32605	1293.74841	164.80241	1193.50171	1210.14001	206.00636	1079.84338	1199.08313	299.89761	1000.83887	1224.77344	382.11298	934.32581	1282.74561	373.64868	914.46204	1232.04443	443.01215	879.42841	1258.33325	138.48972	1345.84644	1606.16895	123.04337	1123.12402	1672.68567	128.55943	1009.93872	1686.48682	128.70445	872.64001	1691.3053	148.0714	772.79218	1659.34082	114.2119	773.22864	1701.87695	127.09031	699.01837	1693.51624	200.79408	923.81104	1317.12793	213.38731	939.09912	1554.76331	41.81204	944.95709	1377.00317	49.4175	964.56335	1523.77698	167.65997	620.17065	1265.75024	196.71967	442.94995	1276.42224	34.87983	333.53622	1290.40698	-129.20941	212.70934	1341.94019	-175.95598	224.78416	1386.08289	-77.05015	71.32001	1352.80444	202.53984	645.21301	1602.03577	254.61057	475.29993	1556.0282	211.00967	284.2995	1559.05078	169.68874	74.39761	1507.25024	121.80355	44.30289	1457.94275	308.78577	36.73333	1489.16162	NaN	NaN	NaN	116.00336	1662.78015	1456.05737	NaN	NaN	NaN	NaN	NaN	NaN	NaN	NaN	NaN	NaN	NaN	NaN	NaN	NaN	NaN	NaN	NaN	NaN
137	1.36	215.55519	1620.66821	1396.36401	227.5715	1619.32263	1529.13586	95.77091	1560.63586	1410.36157	112.16998	1559.31201	1540.08667	78.66048	1408.45496	1450.73267	51.51537	1094.89038	1437.19641	202.40834	1334.7782	1445.79126	250.93402	1172.38074	1429.91223	29.21618	1226.3385	1532.33411	155.90369	1382.27417	1293.84985	173.97128	1194.44775	1210.92163	213.53407	1079.69629	1200.28748	305.36407	997.31769	1224.56213	385.82083	927.20953	1281.3147	376.19131	908.2995	1230.2948	444.15936	869.50049	1256.11682	151.60817	1348.35254	1606.51135	139.17079	1125.50488	1673.67578	147.07851	1012.64362	1687.77356	150.30009	875.41083	1692.86658	171.80789	776.07867	1660.87842	138.10027	775.76685	1703.58203	153.19353	702.06628	1695.73218	214.20294	926.72644	1318.39307	225.71027	940.78442	1556.16687	54.99266	947.5155	1377.20679	62.01969	966.37164	1524.11963	187.68968	622.98438	1267.07104	221.20689	446.70636	1278.29309	62.298	333.2435	1292.17883	-98.2458	207.58781	1343.36462	-146.38234	216.99837	1386.85254	-38.96194	69.34165	1354.13611	212.44151	646.04663	1601.83679	259.48712	474.72726	1555.47485	212.83678	284.52527	1558.95886	170.06963	74.84566	1506.85193	122.13415	44.84936	1457.51819	308.93317	36.67331	1489.1062	NaN	NaN	NaN	129.72295	1665.23669	1456.34937	NaN	NaN	NaN	NaN	NaN	NaN	NaN	NaN	NaN	NaN	NaN	NaN	NaN	NaN	NaN	NaN	NaN	NaN
138	1.37	228.60732	1622.46899	1396.42981	240.94141	1621.24377	1529.48096	108.66274	1563.02368	1410.59155	125.22607	1561.62781	1540.2168	91.33389	1410.49854	1451.14758	64.42186	1096.86292	1438.37134	214.92285	1336.7832	1445.9939	263.35733	1174.38098	1430.66956	42.00472	1228.68604	1533.4408	167.54143	1384.04529	1293.93481	183.13049	1195.23743	1211.80249	221.15808	1079.52319	1201.45337	310.51102	993.58051	1224.21191	389.05701	919.83136	1279.44824	378.23969	901.91461	1228.31396	444.42151	859.18976	1253.5105	164.56021	1350.78748	1606.81958	155.41205	1127.99756	1674.72302	165.61423	1015.42218	1689.05444	172.03409	878.32538	1694.27124	196.10501	779.73114	1662.68738	162.26492	778.46313	1705.17029	179.59918	705.41272	1697.82837	227.68895	929.60046	1319.99744	237.88206	942.49615	1557.51367	68.11425	949.90625	1377.2323	74.54802	968.1532	1524.36621	207.20909	625.9845	1268.30945	245.21141	450.72198	1280.44543	90.06632	332.17834	1294.04932	-66.53577	201.02222	1344.08081	-115.84792	207.54837	1387.63879	0.62566	66.95904	1355.8739	221.99255	646.69678	1601.52136	264.04514	474.3175	1555.14661	214.5647	284.7272	1558.91443	170.2715	75.3413	1506.72229	122.23085	45.57753	1457.56226	309.09015	36.62118	1489.02612	NaN	NaN	NaN	142.7845	1667.01563	1456.17371	NaN	NaN	NaN	NaN	NaN	NaN	NaN	NaN	NaN	NaN	NaN	NaN	NaN	NaN	NaN	NaN	NaN	NaN
139	1.38	241.68452	1624.19983	1396.40442	254.05672	1622.96655	1529.36841	121.55992	1565.17773	1410.65857	138.20016	1563.85168	1540.3092	103.80766	1412.42896	1451.51477	77.12164	1098.84888	1439.34912	227.34076	1338.63782	1446.1803	275.73367	1176.18774	1431.46399	54.72302	1230.98804	1534.58777	179.27646	1385.57129	1294.05835	192.46025	1195.93835	1212.8429	228.71336	1079.18347	1202.57263	315.47583	989.60822	1223.63928	391.82681	912.13025	1277.26184	379.68152	895.25372	1226.146	443.81296	848.54639	1250.55396	177.33708	1353.24036	1607.08862	171.65471	1130.66516	1675.87012	184.26401	1018.31787	1690.28113	193.84595	881.45917	1695.65637	220.08191	783.51239	1664.04797	186.64085	781.52277	1706.89038	206.09831	709.01862	1699.68335	241.30403	932.53674	1321.46106	250.01337	944.07336	1558.88135	81.16735	952.31683	1377.22632	87.04859	969.86029	1524.60852	226.38727	629.01654	1269.60901	268.60391	454.73624	1282.91028	118.0266	330.4295	1295.84375	-34.04739	193.29997	1345.03442	-84.54923	196.9399	1388.08398	41.84354	64.53075	1357.52954	230.86319	647.42761	1600.97778	268.2179	473.95361	1554.97559	216.30885	284.98529	1558.91064	170.2762	75.73198	1506.91772	122.3593	46.32499	1457.39148	309.22382	36.556	1488.97144	NaN	NaN	NaN	NaN	NaN	NaN	NaN	NaN	NaN	NaN	NaN	NaN	NaN	NaN	NaN	NaN	NaN	NaN	NaN	NaN	NaN	NaN	NaN	NaN
140	1.39	254.72893	1625.69861	1396.35571	267.00671	1624.59607	1529.22937	134.38484	1567.11377	1410.64246	151.00172	1565.87988	1540.30042	116.43446	1414.23779	1451.92139	89.81308	1100.44092	1440.28308	239.77316	1340.32971	1446.45593	288.14951	1177.78064	1432.15735	67.25932	1233.27332	1535.78699	191.20068	1386.84216	1294.2135	201.91846	1196.21594	1213.79309	236.40402	1078.73694	1203.54602	320.17148	985.41913	1222.96704	394.22876	904.2619	1274.81287	380.57965	888.4455	1223.73438	442.33887	837.75513	1247.18738	190.04695	1355.59216	1607.45166	187.59485	1133.12146	1676.85278	202.65765	1021.27509	1691.53699	215.74953	884.78522	1697.06934	244.29707	787.56842	1665.3136	211.0183	784.62073	1708.0083	232.78661	712.96082	1701.42444	254.91998	935.48578	1322.83289	262.08203	945.54376	1559.99805	94.24743	954.5484	1377.30786	99.62011	971.52026	1524.86804	245.20729	632.02155	1270.7627	291.68423	458.80103	1285.53955	146.0517	328.34198	1297.53821	-0.48363	184.56265	1345.83179	-51.81048	185.06459	1388.04797	83.3942	61.35282	1359.54333	239.28629	648.02557	1600.70105	272.03671	473.74478	1554.98547	218.1498	285.33658	1558.92505	170.53992	76.3147	1506.82935	122.63504	47.25984	1457.23071	309.39447	36.39974	1488.88782	NaN	NaN	NaN	169.75745	1671.35559	1456.48254	NaN	NaN	NaN	NaN	NaN	NaN	NaN	NaN	NaN	NaN	NaN	NaN	NaN	NaN	NaN	NaN	NaN	NaN
141	1.4	267.56763	1627.03662	1396.17969	279.91898	1626.09717	1529.04028	147.21654	1568.76306	1410.57568	163.78889	1567.73315	1540.24512	128.95305	1415.83704	1452.22852	102.39051	1102.08521	1441.10437	252.10887	1341.84302	1446.77527	300.45355	1179.28625	1433.03113	79.97812	1235.27295	1537.04675	203.23076	1387.76672	1294.3916	211.44147	1196.44177	1214.82263	243.98683	1078.12061	1204.44763	324.58493	980.96503	1222.14063	396.03192	896.12909	1272.12268	380.9534	881.49854	1221.01807	440.06702	826.94043	1243.48767	202.7773	1357.83643	1607.80103	203.72177	1135.6908	1678.1084	220.92232	1024.1947	1692.79541	237.53403	888.0849	1698.31213	268.56149	791.76007	1666.45667	235.75291	788.00427	1709.35938	259.50797	716.89972	1702.849	268.37119	938.09344	1324.2019	274.1666	946.724	1560.85339	107.15353	956.53625	1377.41895	112.26134	972.99353	1525.12622	263.74902	634.9201	1271.99158	313.87512	462.83328	1288.52576	173.99232	325.90167	1299.2019	34.22121	174.89388	1346.46008	-17.9477	172.34595	1388.19812	125.95679	58.16682	1361.26563	248.00569	648.5249	1600.13879	275.65372	473.64658	1555.23718	219.8618	285.90988	1558.95935	170.71863	77.0491	1506.73718	122.85272	48.30215	1457.00012	309.44562	36.31956	1489.00793	NaN	NaN	NaN	NaN	NaN	NaN	NaN	NaN	NaN	NaN	NaN	NaN	NaN	NaN	NaN	NaN	NaN	NaN	NaN	NaN	NaN	NaN	NaN	NaN
142	1.41	280.46124	1628.12085	1395.93567	292.70526	1627.49084	1528.79968	159.88391	1570.1377	1410.4563	176.47565	1569.37292	1540.11804	141.45982	1417.26563	1452.54041	114.92035	1103.52356	1441.82239	264.49326	1343.23096	1447.06128	312.80429	1180.60986	1433.9248	92.61537	1237.09314	1538.32629	215.27225	1388.50842	1294.62122	221.30426	1196.33215	1215.79529	251.90956	1077.20679	1205.45081	328.85779	976.41565	1221.27148	397.32251	887.76013	1269.30371	380.67282	874.43744	1218.29993	436.9935	816.2038	1239.44836	215.44197	1359.90698	1608.07568	219.36987	1138.05933	1679.21448	238.97736	1027.11304	1694.16711	259.29547	891.45953	1699.54138	293.00839	796.21033	1667.53931	260.18402	791.49731	1710.60193	286.42819	721.48163	1704.34973	281.96136	940.32117	1325.06567	286.31332	947.66064	1561.52026	120.11916	958.32196	1377.47998	124.7064	974.4574	1525.30127	281.92682	637.66504	1273.15955	335.61996	466.66357	1291.57324	202.04771	323.04123	1300.94641	69.63301	164.90302	1347.20532	17.22779	158.95067	1388.43274	168.66081	54.6762	1363.16101	254.41364	649.23828	1599.97253	278.94064	473.59131	1555.65015	221.136	286.52774	1559.12927	170.90417	77.82241	1506.60669	123.12428	49.73927	1456.83691	309.60052	36.26537	1489.11206	NaN	NaN	NaN	195.30405	1673.85608	1455.05115	NaN	NaN	NaN	NaN	NaN	NaN	NaN	NaN	NaN	NaN	NaN	NaN	NaN	NaN	NaN	NaN	NaN	NaN
